<?xml version="1.0" encoding="UTF-8"?>
<!DOCTYPE svg PUBLIC "-//W3C//DTD SVG 1.1//EN" "http://www.w3.org/Graphics/SVG/1.1/DTD/svg11.dtd">
<!-- Creator: CorelDRAW -->
<svg xmlns="http://www.w3.org/2000/svg" xml:space="preserve" width="25mm" height="30mm" style="shape-rendering:geometricPrecision; text-rendering:geometricPrecision; image-rendering:optimizeQuality; fill-rule:evenodd; clip-rule:evenodd"
viewBox="0 0 25 30"
 xmlns:xlink="http://www.w3.org/1999/xlink">
 <defs>
  <style type="text/css">
   <![CDATA[
    .fil0 {fill:#999999}
   ]]>
  </style>
 </defs>
 <g id="Vrstva_x0020_1">
  <metadata id="CorelCorpID_0Corel-Layer"/>
  <path class="fil0" d="M12.5 22.7914c-1.4383,0 -2.6046,-1.1664 -2.6046,-2.6046 0,-1.4383 1.1663,-2.6046 2.6046,-2.6046 1.4382,0 2.6046,1.1663 2.6046,2.6046 0,1.4382 -1.1664,2.6046 -2.6046,2.6046zm7.7029 -7.3242l-0.021 -7.893c-0.0071,-2.7005 -2.9814,-6.9267 -7.6819,-6.7939 -4.7006,0.1328 -7.3048,3.3378 -7.6073,6.8164 -0.0339,0.3894 -0.089,6.8828 -0.0883,7.8592 -0.848,1.3759 -1.3373,2.9963 -1.3373,4.7309 0,4.9879 4.045,9.0328 9.0329,9.0328 4.9878,0 9.0328,-4.0449 9.0328,-9.0328 0,-1.7315 -0.4878,-3.349 -1.333,-4.7234l0.0031 0.0038zm-12.0959 -3.1739l-0.0226 -4.3818c0.0564,-1.9517 2.1511,-4.0173 4.4156,-4.0173 2.2644,0 4.4276,2.0259 4.4332,4.0454l0.0122 4.3833c-1.3127,-0.7437 -2.8294,-1.169 -4.4454,-1.169 -1.5946,0 -3.0925,0.4139 -4.393,1.1394zm4.393 13.7123c-3.2131,0 -5.8188,-2.6057 -5.8188,-5.8188 0,-3.2131 2.6057,-5.8188 5.8188,-5.8188 3.213,0 5.8187,2.6057 5.8187,5.8188 0,3.2131 -2.6057,5.8188 -5.8187,5.8188z"/>
 </g>
</svg>
