<?xml version="1.0" encoding="UTF-8"?>
<!DOCTYPE svg PUBLIC "-//W3C//DTD SVG 1.1//EN" "http://www.w3.org/Graphics/SVG/1.1/DTD/svg11.dtd">
<!-- Creator: CorelDRAW -->
<svg xmlns="http://www.w3.org/2000/svg" xml:space="preserve" width="25mm" height="30mm" style="shape-rendering:geometricPrecision; text-rendering:geometricPrecision; image-rendering:optimizeQuality; fill-rule:evenodd; clip-rule:evenodd"
viewBox="0 0 25 30"
 xmlns:xlink="http://www.w3.org/1999/xlink">
 <defs>
  <style type="text/css">
   <![CDATA[
    .fil0 {fill:#FF9933}
   ]]>
  </style>
 </defs>
 <g id="Vrstva_x0020_1">
  <metadata id="CorelCorpID_0Corel-Layer"/>
  <path class="fil0" d="M12.5 22.7967c-1.4392,0 -2.6064,-1.1671 -2.6064,-2.6063 0,-1.4392 1.1672,-2.6064 2.6064,-2.6064 1.4392,0 2.6064,1.1672 2.6064,2.6064 0,1.4392 -1.1672,2.6063 -2.6064,2.6063zm7.7082 -7.3291l-0.021 -7.8984c-0.0071,-2.7024 -2.9834,-6.9314 -7.6872,-6.7985 -4.7037,0.1329 -7.3096,3.34 -7.6124,6.821 -0.0356,0.4093 -0.0947,1.4847 -0.0879,1.8994l3.2358 0.0035 0.0459 -1.5879c0.0565,-1.953 2.1527,-4.02 4.4186,-4.02 2.266,0 4.4307,2.0273 4.4363,4.0482l0.0121 4.3863c-1.3135,-0.7443 -2.8312,-1.1698 -4.4484,-1.1698 -4.9913,0 -9.039,4.0477 -9.039,9.039 0,4.9912 4.0477,9.039 9.039,9.039 4.9913,0 9.039,-4.0478 9.039,-9.039 0,-1.7327 -0.4882,-3.3513 -1.3339,-4.7266l0.0031 0.0038zm-7.7082 10.5455c-3.2153,0 -5.8227,-2.6075 -5.8227,-5.8227 0,-3.2153 2.6074,-5.8228 5.8227,-5.8228 3.2153,0 5.8228,2.6075 5.8228,5.8228 0,3.2152 -2.6075,5.8227 -5.8228,5.8227z"/>
 </g>
</svg>
