<?xml version="1.0" encoding="UTF-8"?>
<!DOCTYPE svg PUBLIC "-//W3C//DTD SVG 1.1//EN" "http://www.w3.org/Graphics/SVG/1.1/DTD/svg11.dtd">
<!-- Creator: CorelDRAW -->
<svg xmlns="http://www.w3.org/2000/svg" xml:space="preserve" width="25mm" height="30mm" style="shape-rendering:geometricPrecision; text-rendering:geometricPrecision; image-rendering:optimizeQuality; fill-rule:evenodd; clip-rule:evenodd"
viewBox="0 0 25 30"
 xmlns:xlink="http://www.w3.org/1999/xlink">
 <defs>
  <style type="text/css">
   <![CDATA[
    .fil0 {fill:#999999}
    .fil1 {fill:black;fill-rule:nonzero}
   ]]>
  </style>
 </defs>
 <g id="Vrstva_x0020_1">
  <metadata id="CorelCorpID_0Corel-Layer"/>
  <g id="_76260792">
   <path id="_76263144" class="fil0" d="M1.9507 1.6186l21.0987 0 0 26.7629 -21.0987 0 0 -26.7629zm0.8385 1.0018l19.4632 0 0 24.588 -19.4632 0 0 -24.588zm2.2157 1.1843l14.6345 0 0 2.0302 -14.6345 0 0 -2.0302zm2.5965 2.8196l9.8388 0 0 1.0037 -9.8388 0 0 -1.0037zm-3.7081 3.3104l7.7098 0 0 0.8178 -7.7098 0 0 -0.8178zm0 6.3048l7.736 0 0 0.8177 -7.736 0 0 -0.8177zm0 2.0583l7.736 0 0 0.8177 -7.736 0 0 -0.8177zm0 2.0582l7.736 0 0 0.8177 -7.736 0 0 -0.8177zm0 2.0583l7.736 0 0 0.8177 -7.736 0 0 -0.8177zm0 2.0582l7.736 0 0 0.8177 -7.736 0 0 -0.8177zm0 -10.2912l7.736 0 0 0.8177 -7.736 0 0 -0.8177zm-0.026 -2.2305l7.7101 0 0 0.8177 -7.7101 0 0 -0.8177zm9.2451 -2.0161l7.7101 0 0 0.8178 -7.7101 0 0 -0.8178zm0 6.3048l7.7363 0 0 0.8177 -7.7363 0 0 -0.8177zm0 2.0583l7.7363 0 0 0.8177 -7.7363 0 0 -0.8177zm0 2.0582l7.7363 0 0 0.8177 -7.7363 0 0 -0.8177zm0 2.0583l7.7363 0 0 0.8177 -7.7363 0 0 -0.8177zm0 2.0582l7.7363 0 0 0.8177 -7.7363 0 0 -0.8177zm0 -10.2912l7.7363 0 0 0.8177 -7.7363 0 0 -0.8177zm-0.0257 -2.2305l7.7101 0 0 0.8177 -7.7101 0 0 -0.8177z"/>
   <path id="_76263120" class="fil1" d="M5.9322 24.0413l-1.9478 -2.3213 0.8756 -0.7347c0.154,-0.1292 0.2782,-0.2206 0.3715,-0.274 0.1299,-0.0768 0.2559,-0.1208 0.3781,-0.1322 0.1212,-0.0114 0.2464,0.0115 0.3737,0.0678 0.1277,0.0567 0.2395,0.1426 0.3361,0.2577 0.1655,0.1973 0.2433,0.4175 0.2327,0.6594 -0.0117,0.2419 -0.1811,0.501 -0.5092,0.7763l-0.5956 0.4998 0.7919 0.9437 -0.307 0.2575zm-0.7148 -1.4752l0.6005 -0.5039c0.1983,-0.1664 0.3086,-0.3216 0.3297,-0.4654 0.0211,-0.144 -0.0244,-0.2827 -0.1368,-0.4166 -0.0817,-0.0973 -0.1758,-0.1602 -0.283,-0.1881 -0.1073,-0.0279 -0.2097,-0.0194 -0.3088,0.0261 -0.0633,0.03 -0.1642,0.1028 -0.3037,0.2198l-0.594 0.4984 0.6961 0.8297zm1.8355 -1.3919c-0.3233,-0.3854 -0.4731,-0.7737 -0.4489,-1.1651 0.0242,-0.3915 0.1996,-0.7248 0.5271,-0.9996 0.214,-0.1796 0.4507,-0.2906 0.7083,-0.3327 0.258,-0.0415 0.509,-0.0091 0.753,0.0985 0.2436,0.1069 0.4631,0.2773 0.6576,0.5092 0.1977,0.2357 0.3276,0.4859 0.388,0.7512 0.061,0.2656 0.0443,0.5191 -0.0495,0.7608 -0.0943,0.2422 -0.2419,0.4471 -0.4435,0.6163 -0.2189,0.1836 -0.458,0.2949 -0.7188,0.3332 -0.2609,0.0393 -0.5122,0.0043 -0.7541,-0.1041 -0.2414,-0.1077 -0.4482,-0.264 -0.6192,-0.4677zm0.3209 -0.261c0.2349,0.28 0.4946,0.437 0.78,0.4719 0.2859,0.0346 0.5422,-0.0432 0.7691,-0.2337 0.2314,-0.1941 0.3536,-0.4347 0.3663,-0.7227 0.0126,-0.2878 -0.1059,-0.5816 -0.3567,-0.8805 -0.1582,-0.1886 -0.329,-0.3262 -0.5112,-0.4138 -0.1821,-0.0875 -0.3672,-0.1183 -0.5553,-0.0932 -0.188,0.0262 -0.3585,0.1029 -0.5115,0.2313 -0.2177,0.1827 -0.3422,0.4142 -0.3733,0.6955 -0.0315,0.2806 0.0996,0.5961 0.3926,0.9452zm2.5136 -1.4618l0.2685 -0.2684c0.111,0.1049 0.2227,0.1733 0.3356,0.2056 0.1128,0.0324 0.241,0.0271 0.385,-0.0154 0.1438,-0.0425 0.2818,-0.1195 0.4137,-0.2302 0.1173,-0.0984 0.206,-0.2023 0.2666,-0.3122 0.0603,-0.1104 0.0874,-0.2142 0.0805,-0.3115 -0.0076,-0.0978 -0.0407,-0.1823 -0.1011,-0.2542 -0.0612,-0.0729 -0.1353,-0.1185 -0.2238,-0.1373 -0.088,-0.0192 -0.1958,-0.0061 -0.3234,0.0384 -0.0831,0.0282 -0.2521,0.1055 -0.5087,0.2334 -0.256,0.1273 -0.4461,0.2048 -0.5696,0.2311 -0.1593,0.0351 -0.3028,0.0321 -0.4295,-0.008 -0.1261,-0.0406 -0.2339,-0.1142 -0.3237,-0.2212 -0.098,-0.1167 -0.1571,-0.2541 -0.1758,-0.4114 -0.0193,-0.158 0.0132,-0.317 0.0963,-0.4769 0.084,-0.16 0.2035,-0.3052 0.3597,-0.4363 0.1724,-0.1447 0.3468,-0.2441 0.5254,-0.2991 0.1776,-0.0551 0.3472,-0.0583 0.5082,-0.0102 0.1605,0.0486 0.3014,0.1386 0.4212,0.2703l-0.2761 0.2693c-0.1391,-0.1329 -0.286,-0.1993 -0.4399,-0.1973 -0.1545,0.0016 -0.3203,0.0771 -0.4987,0.2269 -0.1859,0.156 -0.2924,0.3034 -0.3206,0.4431 -0.0278,0.1394 -0.0016,0.2574 0.0787,0.353 0.0703,0.0838 0.1582,0.127 0.2631,0.1302 0.1048,0.0042 0.3051,-0.07 0.6019,-0.2233 0.2974,-0.1528 0.51,-0.2474 0.6383,-0.2832 0.1877,-0.0507 0.3539,-0.0556 0.4981,-0.0145 0.1446,0.0418 0.269,0.1252 0.3733,0.2495 0.1038,0.1237 0.1662,0.2694 0.1871,0.4381 0.0208,0.1685 -0.0097,0.3386 -0.0908,0.5108 -0.0817,0.1717 -0.2054,0.3271 -0.3708,0.4659 -0.2103,0.1764 -0.4119,0.294 -0.6052,0.3513 -0.1934,0.0581 -0.3818,0.0597 -0.5663,0.0044 -0.1834,-0.0551 -0.3432,-0.1587 -0.4772,-0.3107zm3.484 -1.6522l-1.7179 -2.0474 -0.7648 0.6417 -0.2299 -0.274 1.8398 -1.5438 0.2299 0.274 -0.768 0.6445 1.7179 2.0473 -0.307 0.2577zm1.8945 -0.4919l-1.9515 -2.3257 0.2594 -0.2177 0.1833 0.2184c-0.0106,-0.1366 0.0045,-0.259 0.046,-0.3665 0.041,-0.1071 0.1162,-0.2072 0.226,-0.2993 0.1437,-0.1206 0.3015,-0.1894 0.473,-0.208 0.1723,-0.0185 0.3426,0.0164 0.5112,0.1043 0.1691,0.0875 0.321,0.2114 0.4557,0.3719 0.1442,0.1719 0.2436,0.3529 0.297,0.5429 0.0541,0.1895 0.0528,0.3701 -0.0033,0.5425 -0.0566,0.1718 -0.1495,0.3125 -0.2792,0.4213 -0.0952,0.0798 -0.1968,0.131 -0.3061,0.1546 -0.1091,0.0234 -0.2135,0.0243 -0.3134,0.0041l0.6867 0.8183 -0.2848 0.2389zm-0.9803 -1.6917c0.1814,0.2161 0.3594,0.3393 0.534,0.3697 0.1742,0.0297 0.3242,-0.0077 0.4486,-0.1121 0.1264,-0.1061 0.1901,-0.2508 0.1901,-0.4341 0.0005,-0.1827 -0.0933,-0.3867 -0.282,-0.6116 -0.18,-0.2145 -0.3586,-0.3373 -0.5365,-0.3704 -0.1774,-0.0325 -0.3277,0.0023 -0.4499,0.1048 -0.1216,0.1021 -0.1815,0.2491 -0.1797,0.4411 0.0016,0.1919 0.0939,0.3963 0.2754,0.6126zm2.24 -0.4632l-1.4109 -1.6814 0.2562 -0.215 0.2136 0.2546c-0.0344,-0.1738 -0.0401,-0.3035 -0.0161,-0.3881 0.0233,-0.084 0.0681,-0.1548 0.1345,-0.2105 0.0962,-0.0808 0.2194,-0.1315 0.3701,-0.1539l0.1238 0.3474c-0.104,0.0164 -0.191,0.0544 -0.2607,0.1129 -0.0627,0.0526 -0.1025,0.1182 -0.1209,0.1971 -0.018,0.0796 -0.0096,0.161 0.0251,0.2451 0.053,0.1279 0.1302,0.2518 0.2314,0.3724l0.7387 0.8804 -0.2848 0.239zm-0.5884 -2.903l-0.2752 -0.3281 0.2853 -0.2394 0.2753 0.328 -0.2854 0.2395zm1.6726 1.9933l-1.4109 -1.6815 0.2853 -0.2394 1.411 1.6814 -0.2854 0.2395zm0.7194 -0.6037l-1.4109 -1.6814 0.2562 -0.215 0.2004 0.239c-0.0313,-0.2888 0.0695,-0.5309 0.3024,-0.7263 0.1017,-0.0853 0.21,-0.1449 0.3253,-0.1799 0.1163,-0.0349 0.2194,-0.0404 0.3115,-0.0163 0.0921,0.0231 0.1802,0.0688 0.2655,0.1353 0.0548,0.0444 0.1377,0.1323 0.2484,0.2642l0.8675 1.034 -0.2853 0.2394 -0.8585 -1.0231c-0.0971,-0.1157 -0.1809,-0.1937 -0.2516,-0.2329 -0.0703,-0.0387 -0.1482,-0.0515 -0.2331,-0.0384 -0.0856,0.013 -0.1661,0.0511 -0.2424,0.115 -0.1215,0.102 -0.1932,0.2285 -0.2174,0.3796 -0.0233,0.1513 0.0554,0.334 0.2363,0.5496l0.7705 0.9183 -0.2848 0.2389zm2.2116 -2.2904l0.2524 0.2174c-0.0659,0.0838 -0.1306,0.1528 -0.1938,0.2058 -0.1038,0.0871 -0.1973,0.1381 -0.2823,0.1531 -0.084,0.0153 -0.1603,0.0055 -0.2284,-0.0285 -0.0676,-0.0334 -0.1739,-0.1358 -0.3172,-0.3067l-0.8118 -0.9674 -0.2091 0.1755 -0.186 -0.2216 0.2091 -0.1755 -0.3496 -0.4167 0.1404 -0.4089 0.493 0.5875 0.2865 -0.2404 0.1859 0.2216 -0.2865 0.2404 0.825 0.9831c0.0684,0.0816 0.1169,0.1295 0.1461,0.1445 0.0298,0.0147 0.0614,0.0194 0.0959,0.0144 0.034,-0.0055 0.0724,-0.0257 0.1145,-0.0611 0.0319,-0.0267 0.0704,-0.0654 0.1159,-0.1165z"/>
  </g>
 </g>
</svg>
