<?xml version="1.0" encoding="UTF-8"?>
<!DOCTYPE svg PUBLIC "-//W3C//DTD SVG 1.1//EN" "http://www.w3.org/Graphics/SVG/1.1/DTD/svg11.dtd">
<!-- Creator: CorelDRAW -->
<svg xmlns="http://www.w3.org/2000/svg" xml:space="preserve" width="25mm" height="30mm" style="shape-rendering:geometricPrecision; text-rendering:geometricPrecision; image-rendering:optimizeQuality; fill-rule:evenodd; clip-rule:evenodd"
viewBox="0 0 25 30"
 xmlns:xlink="http://www.w3.org/1999/xlink">
 <defs>
  <style type="text/css">
   <![CDATA[
    .fil0 {fill:#999999}
    .fil1 {fill:black;fill-rule:nonzero}
   ]]>
  </style>
 </defs>
 <g id="Vrstva_x0020_1">
  <metadata id="CorelCorpID_0Corel-Layer"/>
  <g id="_98327128">
   <path id="_98327344" class="fil0" d="M1.9507 1.6185l21.0987 0 0 26.7629 -21.0987 0 0 -26.7629zm0.8385 1.0018l19.4632 0 0 24.588 -19.4632 0 0 -24.588zm2.2157 1.1843l14.6345 0 0 2.0302 -14.6345 0 0 -2.0302zm2.5965 2.8196l9.8388 0 0 1.0037 -9.8388 0 0 -1.0037zm-3.7081 3.3104l7.7098 0 0 0.8178 -7.7098 0 0 -0.8178zm0 6.3048l7.736 0 0 0.8177 -7.736 0 0 -0.8177zm0 2.0583l7.736 0 0 0.8177 -7.736 0 0 -0.8177zm0 2.0582l7.736 0 0 0.8177 -7.736 0 0 -0.8177zm0 2.0583l7.736 0 0 0.8177 -7.736 0 0 -0.8177zm0 2.0582l7.736 0 0 0.8177 -7.736 0 0 -0.8177zm0 -10.2912l7.736 0 0 0.8177 -7.736 0 0 -0.8177zm-0.026 -2.2305l7.7101 0 0 0.8177 -7.7101 0 0 -0.8177zm9.2451 -2.0161l7.7101 0 0 0.8178 -7.7101 0 0 -0.8178zm0 6.3048l7.7363 0 0 0.8177 -7.7363 0 0 -0.8177zm0 2.0583l7.7363 0 0 0.8177 -7.7363 0 0 -0.8177zm0 2.0582l7.7363 0 0 0.8177 -7.7363 0 0 -0.8177zm0 2.0583l7.7363 0 0 0.8177 -7.7363 0 0 -0.8177zm0 2.0582l7.7363 0 0 0.8177 -7.7363 0 0 -0.8177zm0 -10.2912l7.7363 0 0 0.8177 -7.7363 0 0 -0.8177zm-0.0257 -2.2305l7.7101 0 0 0.8177 -7.7101 0 0 -0.8177z"/>
   <path id="_98328016" class="fil1" d="M6.8455 23.3032l-1.9478 -2.3213 0.8756 -0.7347c0.154,-0.1292 0.2782,-0.2206 0.3715,-0.274 0.1299,-0.0768 0.2559,-0.1208 0.3781,-0.1322 0.1212,-0.0114 0.2464,0.0115 0.3737,0.0678 0.1277,0.0567 0.2395,0.1426 0.3361,0.2577 0.1655,0.1973 0.2433,0.4175 0.2327,0.6594 -0.0117,0.2419 -0.1811,0.501 -0.5092,0.7763l-0.5956 0.4998 0.7919 0.9437 -0.307 0.2575zm-0.7148 -1.4752l0.6005 -0.5039c0.1983,-0.1664 0.3086,-0.3216 0.3297,-0.4654 0.0211,-0.144 -0.0244,-0.2827 -0.1368,-0.4166 -0.0817,-0.0973 -0.1758,-0.1602 -0.283,-0.1881 -0.1073,-0.0279 -0.2097,-0.0194 -0.3088,0.0261 -0.0633,0.03 -0.1642,0.1028 -0.3037,0.2198l-0.594 0.4984 0.6961 0.8297zm2.8827 -0.3438l-1.9479 -2.3213 1.0291 -0.8636c0.207,-0.1736 0.382,-0.2845 0.5244,-0.3332 0.1425,-0.0486 0.2901,-0.0472 0.4435,0.0037 0.1531,0.0521 0.283,0.142 0.3901,0.2695 0.1383,0.1649 0.2014,0.3477 0.1891,0.5504 -0.0117,0.2024 -0.1162,0.4126 -0.3129,0.6302 0.1142,-0.0295 0.2079,-0.0429 0.2823,-0.0399 0.1587,0.0069 0.3302,0.0389 0.5141,0.0946l0.9339 0.293 -0.3864 0.3243 -0.7125 -0.2256c-0.2063,-0.0636 -0.3701,-0.1085 -0.4901,-0.133 -0.12,-0.0255 -0.2154,-0.0339 -0.2859,-0.0245 -0.0708,0.0088 -0.1346,0.0272 -0.1921,0.0552 -0.041,0.0226 -0.101,0.0664 -0.1804,0.133l-0.3562 0.2989 0.8649 1.0307 -0.307 0.2576zm-0.781 -1.5542l0.6605 -0.5542c0.1399,-0.1175 0.2379,-0.2246 0.2923,-0.32 0.055,-0.0958 0.0761,-0.1927 0.0636,-0.2909 -0.0125,-0.0983 -0.05,-0.1847 -0.113,-0.2598 -0.0921,-0.1097 -0.2073,-0.1669 -0.3467,-0.1705 -0.1388,-0.0042 -0.2942,0.0663 -0.4667,0.211l-0.7344 0.6163 0.6444 0.7681zm3.1244 -0.4122l-1.9478 -2.3213 1.6783 -1.4083 0.2299 0.274 -1.3712 1.1506 0.5963 0.7108 1.2842 -1.0776 0.2286 0.2724 -1.2842 1.0776 0.663 0.7902 1.4253 -1.196 0.2299 0.2741 -1.7323 1.4535zm2.661 -1.1349l-1.9515 -2.3257 0.2594 -0.2178 0.1833 0.2184c-0.0106,-0.1366 0.0045,-0.259 0.046,-0.3665 0.041,-0.1071 0.1163,-0.2072 0.226,-0.2993 0.1437,-0.1206 0.3015,-0.1894 0.473,-0.208 0.1723,-0.0185 0.3426,0.0164 0.5112,0.1044 0.1691,0.0874 0.321,0.2113 0.4557,0.3718 0.1442,0.1719 0.2436,0.3529 0.297,0.5429 0.0541,0.1895 0.0528,0.3702 -0.0033,0.5426 -0.0566,0.1717 -0.1495,0.3124 -0.2792,0.4212 -0.0952,0.0798 -0.1968,0.1311 -0.3061,0.1546 -0.1091,0.0234 -0.2135,0.0243 -0.3133,0.0041l0.6866 0.8183 -0.2848 0.239zm-0.9803 -1.6918c0.1814,0.2162 0.3594,0.3394 0.534,0.3697 0.1743,0.0298 0.3243,-0.0077 0.4486,-0.112 0.1265,-0.1062 0.1901,-0.2509 0.1901,-0.4341 0.0005,-0.1828 -0.0933,-0.3868 -0.282,-0.6116 -0.18,-0.2146 -0.3586,-0.3373 -0.5365,-0.3704 -0.1774,-0.0326 -0.3277,0.0022 -0.4499,0.1048 -0.1216,0.102 -0.1815,0.249 -0.1797,0.441 0.0016,0.1919 0.0939,0.3963 0.2754,0.6126zm2.24 -0.4632l-1.4109 -1.6814 0.2562 -0.215 0.2136 0.2546c-0.0344,-0.1738 -0.04,-0.3035 -0.0161,-0.3881 0.0233,-0.084 0.0681,-0.1548 0.1345,-0.2105 0.0962,-0.0807 0.2194,-0.1315 0.3701,-0.1539l0.1239 0.3474c-0.1041,0.0164 -0.1911,0.0544 -0.2608,0.1129 -0.0627,0.0526 -0.1024,0.1182 -0.1209,0.1972 -0.018,0.0795 -0.0096,0.161 0.0251,0.2451 0.053,0.1278 0.1302,0.2518 0.2314,0.3723l0.7388 0.8805 -0.2849 0.2389zm-0.5884 -2.903l-0.2752 -0.328 0.2853 -0.2395 0.2753 0.328 -0.2854 0.2395zm1.6726 1.9933l-1.4109 -1.6815 0.2854 -0.2394 1.4109 1.6815 -0.2854 0.2394zm0.7194 -0.6036l-1.4109 -1.6815 0.2562 -0.2149 0.2004 0.2389c-0.0313,-0.2887 0.0695,-0.5308 0.3024,-0.7263 0.1017,-0.0853 0.21,-0.1449 0.3253,-0.1799 0.1163,-0.0349 0.2194,-0.0403 0.3115,-0.0163 0.0921,0.0231 0.1802,0.0688 0.2655,0.1354 0.0548,0.0444 0.1377,0.1322 0.2484,0.2642l0.8675 1.0339 -0.2853 0.2394 -0.8585 -1.0231c-0.0971,-0.1157 -0.1809,-0.1936 -0.2516,-0.2329 -0.0703,-0.0387 -0.1482,-0.0514 -0.2331,-0.0383 -0.0856,0.013 -0.1661,0.051 -0.2423,0.115 -0.1216,0.102 -0.1933,0.2284 -0.2175,0.3796 -0.0233,0.1512 0.0554,0.3339 0.2363,0.5495l0.7705 0.9183 -0.2848 0.239zm2.2116 -2.2905l0.2525 0.2174c-0.066,0.0838 -0.1307,0.1528 -0.1939,0.2059 -0.1038,0.0871 -0.1973,0.138 -0.2823,0.1531 -0.084,0.0152 -0.1603,0.0055 -0.2284,-0.0285 -0.0676,-0.0335 -0.1739,-0.1359 -0.3172,-0.3067l-0.8118 -0.9675 -0.2091 0.1755 -0.186 -0.2216 0.2091 -0.1755 -0.3496 -0.4166 0.1404 -0.409 0.493 0.5875 0.2865 -0.2404 0.1859 0.2216 -0.2865 0.2404 0.825 0.9832c0.0684,0.0816 0.1169,0.1294 0.1461,0.1444 0.0298,0.0147 0.0614,0.0194 0.0959,0.0145 0.034,-0.0056 0.0724,-0.0258 0.1146,-0.0612 0.0318,-0.0267 0.0703,-0.0654 0.1158,-0.1165z"/>
  </g>
 </g>
</svg>
