<?xml version="1.0" encoding="UTF-8"?>
<!DOCTYPE svg PUBLIC "-//W3C//DTD SVG 1.1//EN" "http://www.w3.org/Graphics/SVG/1.1/DTD/svg11.dtd">
<!-- Creator: CorelDRAW -->
<svg xmlns="http://www.w3.org/2000/svg" xml:space="preserve" width="25mm" height="30mm" style="shape-rendering:geometricPrecision; text-rendering:geometricPrecision; image-rendering:optimizeQuality; fill-rule:evenodd; clip-rule:evenodd"
viewBox="0 0 25 30"
 xmlns:xlink="http://www.w3.org/1999/xlink">
 <defs>
  <style type="text/css">
   <![CDATA[
    .fil0 {fill:#999999}
   ]]>
  </style>
 </defs>
 <g id="Vrstva_x0020_1">
  <metadata id="CorelCorpID_0Corel-Layer"/>
  <path class="fil0" d="M1.9506 1.6185l21.0987 0 0 26.7629 -21.0987 0 0 -26.7629zm0.8385 1.0018l19.4632 0 0 24.588 -19.4632 0 0 -24.588zm2.2157 1.1843l14.6345 0 0 2.0302 -14.6345 0 0 -2.0302zm2.5965 2.8196l9.8388 0 0 1.0037 -9.8388 0 0 -1.0037zm-3.7081 3.3104l7.7098 0 0 0.8178 -7.7098 0 0 -0.8178zm0 6.3048l7.736 0 0 0.8177 -7.736 0 0 -0.8177zm0 2.0583l7.736 0 0 0.8177 -7.736 0 0 -0.8177zm0 2.0582l7.736 0 0 0.8177 -7.736 0 0 -0.8177zm0 2.0583l7.736 0 0 0.8177 -7.736 0 0 -0.8177zm0 2.0582l7.736 0 0 0.8177 -7.736 0 0 -0.8177zm0 -10.2912l7.736 0 0 0.8177 -7.736 0 0 -0.8177zm-0.026 -2.2305l7.7101 0 0 0.8177 -7.7101 0 0 -0.8177zm9.2451 -2.0161l7.7101 0 0 0.8178 -7.7101 0 0 -0.8178zm0 6.3048l7.7363 0 0 0.8177 -7.7363 0 0 -0.8177zm0 2.0583l7.7363 0 0 0.8177 -7.7363 0 0 -0.8177zm0 2.0582l7.7363 0 0 0.8177 -7.7363 0 0 -0.8177zm0 2.0583l7.7363 0 0 0.8177 -7.7363 0 0 -0.8177zm0 2.0582l7.7363 0 0 0.8177 -7.7363 0 0 -0.8177zm0 -10.2912l7.7363 0 0 0.8177 -7.7363 0 0 -0.8177zm-0.0257 -2.2305l7.7101 0 0 0.8177 -7.7101 0 0 -0.8177z"/>
 </g>
</svg>
