<?xml version="1.0" encoding="UTF-8"?>
<!DOCTYPE svg PUBLIC "-//W3C//DTD SVG 1.1//EN" "http://www.w3.org/Graphics/SVG/1.1/DTD/svg11.dtd">
<!-- Creator: CorelDRAW -->
<svg xmlns="http://www.w3.org/2000/svg" xml:space="preserve" width="25mm" height="30mm" style="shape-rendering:geometricPrecision; text-rendering:geometricPrecision; image-rendering:optimizeQuality; fill-rule:evenodd; clip-rule:evenodd"
viewBox="0 0 25 30"
 xmlns:xlink="http://www.w3.org/1999/xlink">
 <defs>
  <style type="text/css">
   <![CDATA[
    .fil0 {fill:#999999}
   ]]>
  </style>
 </defs>
 <g id="Vrstva_x0020_1">
  <metadata id="CorelCorpID_0Corel-Layer"/>
  <path class="fil0" d="M1.7525 1.6545l21.0987 0 0 26.7629 -21.0987 0 0 -26.7629zm0.8385 1.0018l19.4632 0 0 24.588 -19.4632 0 0 -24.588zm3.5181 1.1843l12.0298 0 0 2.0302 -12.0298 0 0 -2.0302zm2.9507 2.8196l6.5256 0 0 1.0037 -6.5256 0 0 -1.0037zm-5.334 2.0613l17.0233 0 0 0.8178 -17.0233 0 0 -0.8178zm0 7.5539l17.0811 0 0 0.8177 -17.0811 0 0 -0.8177zm0 2.0583l17.0811 0 0 0.8177 -17.0811 0 0 -0.8177zm0 2.0582l17.0811 0 0 0.8177 -17.0811 0 0 -0.8177zm0 2.0583l17.0811 0 0 0.8177 -17.0811 0 0 -0.8177zm0 2.0582l17.0811 0 0 0.8177 -17.0811 0 0 -0.8177zm0 -10.2912l17.0811 0 0 0.8177 -17.0811 0 0 -0.8177zm-0.0567 -3.4796l17.0232 0 0 0.8177 -17.0232 0 0 -0.8177z"/>
 </g>
</svg>
