<?xml version="1.0" encoding="UTF-8"?>
<!DOCTYPE svg PUBLIC "-//W3C//DTD SVG 1.1//EN" "http://www.w3.org/Graphics/SVG/1.1/DTD/svg11.dtd">
<!-- Creator: CorelDRAW -->
<svg xmlns="http://www.w3.org/2000/svg" xml:space="preserve" width="25mm" height="30mm" style="shape-rendering:geometricPrecision; text-rendering:geometricPrecision; image-rendering:optimizeQuality; fill-rule:evenodd; clip-rule:evenodd"
viewBox="0 0 25 30"
 xmlns:xlink="http://www.w3.org/1999/xlink">
 <defs>
  <style type="text/css">
   <![CDATA[
    .fil0 {fill:#999999}
   ]]>
  </style>
 </defs>
 <g id="Vrstva_x0020_1">
  <metadata id="CorelCorpID_0Corel-Layer"/>
  <path class="fil0" d="M4.0657 7.5866l16.7649 0c0.7277,0 1.3748,0.4018 1.3748,1.1294l0 12.5681c0,0.7276 -0.6593,1.0839 -1.387,1.0839l-16.7648 0c-0.7277,0 -1.2591,-0.3562 -1.2591,-1.0839l0 -12.5681c0,-0.7277 0.5435,-1.1294 1.2712,-1.1294zm-0.677 -0.855l18.2226 0c0.7909,0 1.438,0.6471 1.438,1.438l0 13.6609c0,0.7909 -0.6471,1.438 -1.438,1.438l-18.2226 0c-0.791,0 -1.4381,-0.6471 -1.4381,-1.438l0 -13.6609c0,-0.7909 0.6471,-1.438 1.4381,-1.438z"/>
 </g>
</svg>
