<?xml version="1.0" encoding="UTF-8"?>
<!DOCTYPE svg PUBLIC "-//W3C//DTD SVG 1.1//EN" "http://www.w3.org/Graphics/SVG/1.1/DTD/svg11.dtd">
<!-- Creator: CorelDRAW -->
<svg xmlns="http://www.w3.org/2000/svg" xml:space="preserve" width="25mm" height="30mm" style="shape-rendering:geometricPrecision; text-rendering:geometricPrecision; image-rendering:optimizeQuality; fill-rule:evenodd; clip-rule:evenodd"
viewBox="0 0 25 30"
 xmlns:xlink="http://www.w3.org/1999/xlink">
 <defs>
  <style type="text/css">
   <![CDATA[
    .fil0 {fill:#999999}
   ]]>
  </style>
 </defs>
 <g id="Vrstva_x0020_1">
  <metadata id="CorelCorpID_0Corel-Layer"/>
  <path class="fil0" d="M22.2055 6.3422l0 11.8855c0,0.7276 -0.6593,1.0839 -1.3869,1.0839l-16.7639 0c-0.7275,0 -1.2589,-0.3562 -1.2589,-1.0839l0 -11.8855 19.4097 0zm-20.2549 -2.7823l21.0784 0 0 1.314c0.0132,0.078 0.0204,0.1584 0.0204,0.2401l0 13.66c0,0.791 -0.6471,1.438 -1.438,1.438l-8.4154 0 2.9275 6.2245 -1.0216 0.0036 -2.1028 -4.4688 0 4.4562 -0.9274 0 0 -4.6872 -2.5335 4.6736 -1.125 -0.003 3.4256 -6.1989 -8.4489 0c-0.791,0 -1.438,-0.647 -1.438,-1.438l0 -12.4318 -0.0013 0 0 -2.7823zm4.6979 4.056l11.0982 0 0 1.8846 -11.0982 0 0 -1.8846zm-2.1501 6.5229l0.9097 0 0 0.7591 -0.9097 0 0 -0.7591zm0 1.9106l0.9097 0 0 0.7591 -0.9097 0 0 -0.7591zm0 -3.8212l0.9097 0 0 0.7591 -0.9097 0 0 -0.7591zm1.5899 1.9106l13.9268 0 0 0.7591 -13.9268 0 0 -0.7591zm0 1.9106l13.9268 0 0 0.7591 -13.9268 0 0 -0.7591zm0 -3.8212l13.9268 0 0 0.7591 -13.9268 0 0 -0.7591z"/>
 </g>
</svg>
