<?xml version="1.0" encoding="UTF-8"?>
<!DOCTYPE svg PUBLIC "-//W3C//DTD SVG 1.1//EN" "http://www.w3.org/Graphics/SVG/1.1/DTD/svg11.dtd">
<!-- Creator: CorelDRAW -->
<svg xmlns="http://www.w3.org/2000/svg" xml:space="preserve" width="25mm" height="30mm" style="shape-rendering:geometricPrecision; text-rendering:geometricPrecision; image-rendering:optimizeQuality; fill-rule:evenodd; clip-rule:evenodd"
viewBox="0 0 25 30"
 xmlns:xlink="http://www.w3.org/1999/xlink">
 <defs>
  <style type="text/css">
   <![CDATA[
    .fil0 {fill:#999999}
   ]]>
  </style>
 </defs>
 <g id="Vrstva_x0020_1">
  <metadata id="CorelCorpID_0Corel-Layer"/>
  <path class="fil0" d="M4.2927 15.4456l5.5163 -6.3817 3.9918 4.5892 5.7016 -6.5682 0.5643 0.4882c-2.0673,2.3815 -4.1347,4.7633 -6.2021,7.1447l-0.061 0.0692 -0.0618 -0.0662c-1.3112,-1.5037 -2.6265,-3.0064 -3.9356,-4.5133l-4.9492 5.7263 -0.5643 -0.4882zm-0.5698 1.9453l17.0232 0 0 0.8229 -17.0232 0 0 -0.8229zm-0.0567 2.0286l17.0232 0 0 0.8229 -17.0232 0 0 -0.8229zm0 2.1101l17.0232 0 0 0.8228 -17.0232 0 0 -0.8228zm0.4714 -17.3008l1.2227 0c0.7309,0 1.2546,0.113 1.5682,0.339 0.3151,0.2258 0.4718,0.5967 0.4718,1.1137 0,0.3681 -0.0943,0.6699 -0.2843,0.905 -0.1901,0.2353 -0.4652,0.3921 -0.8254,0.4732l0 0.0811 1.5963 2.4069 -0.9184 0 -1.3172 -2.177 -0.8094 0 0 2.177 -0.7043 0 0 -5.3189zm0.7043 0.557l0 1.9935 0.4054 0c0.5077,0 0.8705,-0.0824 1.0859,-0.246 0.2152,-0.1633 0.3229,-0.4318 0.3229,-0.8053 0,-0.2884 -0.101,-0.5171 -0.3018,-0.6872 -0.2006,-0.17 -0.4744,-0.255 -0.82,-0.255l-0.6924 0zm-1.1757 18.9554l17.0232 0 0 0.8228 -17.0232 0 0 -0.8228zm-1.7156 -22.2056l21.0987 0 0 26.9287 -21.0987 0 0 -26.9287zm0.8385 1.008l19.4632 0 0 24.7404 -19.4632 0 0 -24.7404z"/>
 </g>
</svg>
