<?xml version="1.0" encoding="UTF-8"?>
<!DOCTYPE svg PUBLIC "-//W3C//DTD SVG 1.1//EN" "http://www.w3.org/Graphics/SVG/1.1/DTD/svg11.dtd">
<!-- Creator: CorelDRAW -->
<svg xmlns="http://www.w3.org/2000/svg" xml:space="preserve" width="25mm" height="30mm" style="shape-rendering:geometricPrecision; text-rendering:geometricPrecision; image-rendering:optimizeQuality; fill-rule:evenodd; clip-rule:evenodd"
viewBox="0 0 25 30"
 xmlns:xlink="http://www.w3.org/1999/xlink">
 <defs>
  <style type="text/css">
   <![CDATA[
    .fil0 {fill:#999999}
   ]]>
  </style>
 </defs>
 <g id="Vrstva_x0020_1">
  <metadata id="CorelCorpID_0Corel-Layer"/>
  <path class="fil0" d="M18.0744 18.931c-1.3992,1.3304 -2.8564,1.9232 -5.3452,2.0771 -1.9573,0.121 -5.0936,-0.9099 -5.6911,-2.0798l-0.0016 -0.0287 0.0015 -4.6657 -1.9777 -0.5995 0.164 4.1755 -0.7468 -0.7035 -0.8399 0.5892 0.1527 -4.4463 -1.8743 -0.5682 0.0124 -0.2824 10.5082 -3.0662 10.5781 3.0662 -0.0605 0.2571 -4.8682 1.6766 -0.0116 4.5986zm-0.8918 -4.3604l-4.1168 1.4907 -5.1655 -1.5952 0.0097 4.192c0.9702,0.8939 2.2798,1.4582 4.7169,1.4065 2.4371,-0.0517 3.6013,-0.6647 4.5557,-1.5236l0 -3.9704z"/>
 </g>
</svg>
