<?xml version="1.0" encoding="utf-8"?>
<!-- Generator: Adobe Illustrator 26.0.3, SVG Export Plug-In . SVG Version: 6.00 Build 0)  -->
<svg version="1.1" id="Layer_1" xmlns="http://www.w3.org/2000/svg" xmlns:xlink="http://www.w3.org/1999/xlink" x="0px" y="0px"
	 viewBox="0 0 1064.412 63.352" style="enable-background:new 0 0 1064.412 63.352;" xml:space="preserve">
<style type="text/css">
	.st0{fill:#FFFFFF;}
</style>
<g>
	<path class="st0" d="M9.938,46.852V16.406H2.648C1.242,16.406,0,15.211,0,13.781c0-1.453,1.195-2.648,2.648-2.648h19.758
		c1.453,0,2.648,1.195,2.648,2.648c0,1.43-1.195,2.625-2.648,2.625h-7.195v30.445c0,1.43-1.195,2.625-2.625,2.625
		C11.18,49.477,9.938,48.281,9.938,46.852z"/>
	<path class="st0" d="M38.759,46.57V13.781c0-1.453,1.195-2.648,2.648-2.648h16.898c1.43,0,2.625,1.195,2.625,2.648
		c0,1.43-1.195,2.625-2.625,2.625h-14.25v11.109h10.031c1.43,0,2.625,1.195,2.625,2.625c0,1.453-1.195,2.648-2.625,2.648H44.056
		v11.133h14.25c1.43,0,2.625,1.195,2.625,2.648c0,1.43-1.195,2.625-2.625,2.625H41.407C39.954,49.195,38.759,48,38.759,46.57z"/>
	<path class="st0" d="M72.72,38.602V21.703c0-6.305,4.781-11.086,11.133-11.086c6.281,0,11.039,4.781,11.039,11.086
		c0,1.477-1.148,2.625-2.648,2.625c-1.477,0-2.648-1.148-2.648-2.625c0-3.516-2.25-5.812-5.742-5.812
		c-3.562,0-5.859,2.297-5.859,5.812v16.898c0,3.539,2.297,5.836,5.859,5.836c3.492,0,5.742-2.297,5.742-5.836
		c0-1.5,1.172-2.648,2.648-2.648c1.5,0,2.648,1.148,2.648,2.648c0,6.328-4.758,11.133-11.039,11.133
		C77.501,49.734,72.72,44.93,72.72,38.602z"/>
	<path class="st0" d="M108.439,46.852V13.477c0-1.43,1.195-2.625,2.625-2.625c1.453,0,2.648,1.195,2.648,2.625v14.32h11.602v-14.32
		c0-1.43,1.219-2.625,2.648-2.625s2.648,1.195,2.648,2.625v33.375c0,1.43-1.219,2.625-2.648,2.625s-2.648-1.195-2.648-2.625V33.07
		h-11.602v13.781c0,1.43-1.195,2.625-2.648,2.625C109.635,49.477,108.439,48.281,108.439,46.852z"/>
	<path class="st0" d="M145.27,46.852V13.477c0-1.43,1.195-2.625,2.695-2.625c1.008,0,1.805,0.516,2.344,1.523l12.82,24.047V13.477
		c0-1.43,1.195-2.625,2.648-2.625c1.43,0,2.625,1.195,2.625,2.625v33.375c0,1.43-1.195,2.625-2.625,2.625
		c-1.078,0-1.945-0.562-2.508-1.617l-12.727-23.836v22.828c0,1.43-1.195,2.625-2.625,2.625
		C146.465,49.477,145.27,48.281,145.27,46.852z"/>
	<path class="st0" d="M181.645,46.57c0-1.453,1.195-2.648,2.625-2.648h5.812V16.406h-5.812c-1.43,0-2.625-1.195-2.625-2.625
		c0-1.453,1.195-2.648,2.625-2.648h16.898c1.43,0,2.648,1.195,2.648,2.648c0,1.43-1.219,2.625-2.648,2.625h-5.812v27.516h5.812
		c1.43,0,2.648,1.195,2.648,2.648c0,1.43-1.219,2.625-2.648,2.625H184.27C182.84,49.195,181.645,48,181.645,46.57z"/>
	<path class="st0" d="M216.399,38.602V21.703c0-6.305,4.781-11.086,11.133-11.086c6.281,0,11.039,4.781,11.039,11.086
		c0,1.477-1.148,2.625-2.648,2.625c-1.477,0-2.648-1.148-2.648-2.625c0-3.516-2.25-5.812-5.742-5.812
		c-3.562,0-5.859,2.297-5.859,5.812v16.898c0,3.539,2.297,5.836,5.859,5.836c3.492,0,5.742-2.297,5.742-5.836
		c0-1.5,1.172-2.648,2.648-2.648c1.5,0,2.648,1.148,2.648,2.648c0,6.328-4.758,11.133-11.039,11.133
		C221.181,49.734,216.399,44.93,216.399,38.602z"/>
	<path class="st0" d="M270.568,48.375L258.17,35.273v11.578c0,1.43-1.195,2.625-2.625,2.625c-1.453,0-2.648-1.195-2.648-2.625
		V13.477c0-1.43,1.195-2.625,2.648-2.625c1.43,0,2.625,1.195,2.625,2.625V24l11.531-12.281c0.516-0.539,1.195-0.867,1.969-0.867
		c1.43,0,2.648,1.195,2.648,2.625c0,0.914-0.422,1.453-0.773,1.828l-13.406,14.367l14.508,15.352
		c0.469,0.492,0.773,1.195,0.773,1.828c0,1.43-1.219,2.625-2.648,2.625C271.857,49.477,271.178,49.008,270.568,48.375z"/>
	<path class="st0" d="M286.296,46.172l8.344-33.023c0.328-1.289,1.242-2.297,2.695-2.297c1.477,0,2.391,1.055,2.719,2.344
		l8.227,33.023c0.422,1.688-0.914,3.258-2.555,3.258c-1.195,0-2.297-0.797-2.602-2.062l-1.57-6.422h-8.508l-1.664,6.469
		c-0.281,1.125-1.266,2.016-2.555,2.016C287.21,49.477,285.851,47.906,286.296,46.172z M292.343,4.664l7.336-4.266
		C300.03,0.188,300.546,0,301.015,0c1.5,0,2.648,1.172,2.648,2.648c0,0.961-0.586,1.805-1.336,2.25l-7.359,4.289
		c-0.352,0.211-0.867,0.375-1.336,0.375c-1.5,0-2.648-1.148-2.648-2.648C290.983,5.953,291.546,5.133,292.343,4.664z
		 M300.218,35.719l-2.883-11.578l-2.977,11.578H300.218z"/>
	<path class="st0" d="M359.888,38.602V13.477c0-1.477,1.148-2.625,2.625-2.625c1.5,0,2.648,1.148,2.648,2.625v25.125
		c0,3.562,2.25,5.859,5.812,5.859c3.492,0,5.789-2.297,5.789-5.859V13.477c0-1.477,1.172-2.625,2.648-2.625
		c1.5,0,2.648,1.148,2.648,2.625v25.125c0,6.352-4.805,11.133-11.086,11.133C364.622,49.734,359.888,44.953,359.888,38.602z"/>
	<path class="st0" d="M395.514,46.852V13.477c0-1.43,1.195-2.625,2.695-2.625c1.008,0,1.805,0.516,2.344,1.523l12.82,24.047V13.477
		c0-1.43,1.195-2.625,2.648-2.625c1.43,0,2.625,1.195,2.625,2.625v33.375c0,1.43-1.195,2.625-2.625,2.625
		c-1.078,0-1.945-0.562-2.508-1.617l-12.727-23.836v22.828c0,1.43-1.195,2.625-2.625,2.625
		C396.709,49.477,395.514,48.281,395.514,46.852z"/>
	<path class="st0" d="M431.979,46.57c0-1.453,1.195-2.648,2.625-2.648h5.812V16.406h-5.812c-1.43,0-2.625-1.195-2.625-2.625
		c0-1.453,1.195-2.648,2.625-2.648h16.898c1.43,0,2.648,1.195,2.648,2.648c0,1.43-1.219,2.625-2.648,2.625h-5.812v27.516h5.812
		c1.43,0,2.648,1.195,2.648,2.648c0,1.43-1.219,2.625-2.648,2.625h-16.898C433.175,49.195,431.979,48,431.979,46.57z"/>
	<path class="st0" d="M475.82,47.133l-8.297-33.023c-0.445-1.688,0.961-3.258,2.578-3.258c1.242,0,2.273,0.867,2.555,2.016
		l5.859,23.273l5.742-23.227c0.305-1.195,1.312-2.062,2.555-2.062c1.641,0,3.023,1.57,2.602,3.258l-8.18,33.023
		c-0.281,1.148-1.195,2.344-2.672,2.344C477.156,49.477,476.148,48.375,475.82,47.133z"/>
	<path class="st0" d="M503.896,46.57V13.781c0-1.453,1.195-2.648,2.648-2.648h16.898c1.43,0,2.625,1.195,2.625,2.648
		c0,1.43-1.195,2.625-2.625,2.625h-14.25v11.109h10.031c1.43,0,2.625,1.195,2.625,2.625c0,1.453-1.195,2.648-2.625,2.648h-10.031
		v11.133h14.25c1.43,0,2.625,1.195,2.625,2.648c0,1.43-1.195,2.625-2.625,2.625h-16.898C505.092,49.195,503.896,48,503.896,46.57z"
		/>
	<path class="st0" d="M539.256,46.852v-33.07c0-1.453,1.219-2.648,2.648-2.648h8.508c6.469,0,11.039,4.805,11.039,11.086
		c0,4.992-2.883,9.07-7.125,10.477l6.727,12.82c1.008,1.688-0.094,3.961-2.25,3.961c-1.43,0-2.203-1.148-2.555-1.758l-7.523-14.367
		h-4.172v13.5c0,1.43-1.195,2.625-2.648,2.625C540.475,49.477,539.256,48.281,539.256,46.852z M550.412,28.078
		c3.492,0,5.742-2.297,5.742-5.859c0-3.492-2.25-5.812-5.742-5.812h-5.859v11.672H550.412z"/>
	<path class="st0" d="M575.229,44.789l14.461-28.383h-12.773c-1.43,0-2.625-1.195-2.625-2.625c0-1.453,1.195-2.648,2.625-2.648
		h16.477c2.438,0,3.773,2.203,2.672,4.43l-14.438,28.359h12.188c1.43,0,2.648,1.195,2.648,2.648c0,1.43-1.219,2.625-2.648,2.625
		h-15.891C575.487,49.195,574.128,46.992,575.229,44.789z"/>
	<path class="st0" d="M610.016,46.57c0-1.453,1.195-2.648,2.625-2.648h5.812V16.406h-5.812c-1.43,0-2.625-1.195-2.625-2.625
		c0-1.453,1.195-2.648,2.625-2.648h16.898c1.43,0,2.648,1.195,2.648,2.648c0,1.43-1.219,2.625-2.648,2.625h-5.812v27.516h5.812
		c1.43,0,2.648,1.195,2.648,2.648c0,1.43-1.219,2.625-2.648,2.625h-16.898C611.211,49.195,610.016,48,610.016,46.57z"/>
	<path class="st0" d="M653.424,46.852V16.406h-7.289c-1.406,0-2.648-1.195-2.648-2.625c0-1.453,1.195-2.648,2.648-2.648h19.758
		c1.453,0,2.648,1.195,2.648,2.648c0,1.43-1.195,2.625-2.648,2.625h-7.195v30.445c0,1.43-1.195,2.625-2.625,2.625
		C654.666,49.477,653.424,48.281,653.424,46.852z"/>
	<path class="st0" d="M676.596,46.172l8.344-33.023c0.328-1.289,1.242-2.297,2.695-2.297c1.477,0,2.391,1.055,2.719,2.344
		l8.227,33.023c0.422,1.688-0.914,3.258-2.555,3.258c-1.195,0-2.297-0.797-2.602-2.062l-1.57-6.422h-8.508l-1.664,6.469
		c-0.281,1.125-1.266,2.016-2.555,2.016C677.51,49.477,676.15,47.906,676.596,46.172z M690.518,35.719l-2.883-11.578l-2.977,11.578
		H690.518z"/>
	<path class="st0" d="M758.625,47.133l-8.297-33.023c-0.445-1.688,0.961-3.258,2.578-3.258c1.242,0,2.273,0.867,2.555,2.016
		l5.859,23.273l5.742-23.227c0.305-1.195,1.312-2.062,2.555-2.062c1.641,0,3.023,1.57,2.602,3.258l-8.18,33.023
		c-0.281,1.148-1.195,2.344-2.672,2.344C759.961,49.477,758.953,48.375,758.625,47.133z"/>
	<path class="st0" d="M820.779,60.727c0-1.453,1.219-2.648,2.648-2.648h23.039c1.453,0,2.648,1.195,2.648,2.648
		c0,1.43-1.195,2.625-2.648,2.625h-23.039C821.998,63.352,820.779,62.156,820.779,60.727z M825.326,13.477
		c0-1.43,1.195-2.625,2.625-2.625c1.453,0,2.648,1.195,2.648,2.625v30.445h13.312c1.453,0,2.648,1.195,2.648,2.648
		c0,1.43-1.195,2.625-2.648,2.625h-15.961c-1.43,0-2.625-1.195-2.625-2.625V13.477z"/>
	<path class="st0" d="M859.311,58.078h23.039c1.453,0,2.648,1.195,2.648,2.648c0,1.43-1.195,2.625-2.648,2.625h-23.039
		c-1.43,0-2.648-1.195-2.648-2.625C856.662,59.273,857.881,58.078,859.311,58.078z M859.756,46.57c0-1.453,1.195-2.648,2.625-2.648
		h5.812V16.406h-5.812c-1.43,0-2.625-1.195-2.625-2.625c0-1.453,1.195-2.648,2.625-2.648h16.898c1.43,0,2.648,1.195,2.648,2.648
		c0,1.43-1.219,2.625-2.648,2.625h-5.812v27.516h5.812c1.43,0,2.648,1.195,2.648,2.648c0,1.43-1.219,2.625-2.648,2.625h-16.898
		C860.951,49.195,859.756,48,859.756,46.57z"/>
	<path class="st0" d="M895.193,58.078h23.039c1.453,0,2.648,1.195,2.648,2.648c0,1.43-1.195,2.625-2.648,2.625h-23.039
		c-1.43,0-2.648-1.195-2.648-2.625C892.545,59.273,893.764,58.078,895.193,58.078z M896.248,46.57V13.781
		c0-1.453,1.195-2.648,2.648-2.648h8.484c6.586,0,11.039,4.711,11.039,10.852c0,3.445-1.617,6.68-3.844,8.156
		c2.273,1.594,3.844,4.758,3.844,8.25c0,6.164-4.5,10.805-11.039,10.805h-8.484C897.443,49.195,896.248,48,896.248,46.57z
		 M907.381,27.516c3.281,0,5.766-2.32,5.766-5.531c0-3.445-2.25-5.578-5.766-5.578h-5.859v11.109H907.381z M907.381,43.922
		c3.516,0,5.766-2.109,5.766-5.531c0-3.258-2.438-5.602-5.766-5.602h-5.859v11.133H907.381z"/>
	<path class="st0" d="M931.076,58.078h23.039c1.453,0,2.648,1.195,2.648,2.648c0,1.43-1.195,2.625-2.648,2.625h-23.039
		c-1.43,0-2.648-1.195-2.648-2.625C928.428,59.273,929.646,58.078,931.076,58.078z M933.232,46.57V13.781
		c0-1.453,1.195-2.648,2.648-2.648h16.898c1.43,0,2.625,1.195,2.625,2.648c0,1.43-1.195,2.625-2.625,2.625h-14.25v11.109h10.031
		c1.43,0,2.625,1.195,2.625,2.625c0,1.453-1.195,2.648-2.625,2.648h-10.031v11.133h14.25c1.43,0,2.625,1.195,2.625,2.648
		c0,1.43-1.195,2.625-2.625,2.625h-16.898C934.428,49.195,933.232,48,933.232,46.57z"/>
	<path class="st0" d="M966.959,58.078h23.039c1.453,0,2.648,1.195,2.648,2.648c0,1.43-1.195,2.625-2.648,2.625h-23.039
		c-1.43,0-2.648-1.195-2.648-2.625C964.311,59.273,965.529,58.078,966.959,58.078z M968.295,46.852v-33.07
		c0-1.453,1.219-2.648,2.648-2.648h8.508c6.469,0,11.039,4.805,11.039,11.086c0,4.992-2.883,9.07-7.125,10.477l6.727,12.82
		c1.008,1.688-0.094,3.961-2.25,3.961c-1.43,0-2.203-1.148-2.555-1.758l-7.523-14.367h-4.172v13.5c0,1.43-1.195,2.625-2.648,2.625
		C969.514,49.477,968.295,48.281,968.295,46.852z M979.451,28.078c3.492,0,5.742-2.297,5.742-5.859c0-3.492-2.25-5.812-5.742-5.812
		h-5.859v11.672H979.451z"/>
	<path class="st0" d="M1002.842,58.078h23.039c1.453,0,2.648,1.195,2.648,2.648c0,1.43-1.195,2.625-2.648,2.625h-23.039
		c-1.43,0-2.648-1.195-2.648-2.625C1000.193,59.273,1001.412,58.078,1002.842,58.078z M1003.287,38.602V21.703
		c0-6.305,4.781-11.086,11.133-11.086c6.281,0,11.039,4.781,11.039,11.086c0,1.477-1.148,2.625-2.648,2.625
		c-1.477,0-2.648-1.148-2.648-2.625c0-3.516-2.25-5.812-5.742-5.812c-3.562,0-5.859,2.297-5.859,5.812v16.898
		c0,3.539,2.297,5.836,5.859,5.836c3.492,0,5.742-2.297,5.742-5.836c0-1.5,1.172-2.648,2.648-2.648c1.5,0,2.648,1.148,2.648,2.648
		c0,6.328-4.758,11.133-11.039,11.133C1008.068,49.734,1003.287,44.93,1003.287,38.602z"/>
	<path class="st0" d="M1038.725,58.078h23.039c1.453,0,2.648,1.195,2.648,2.648c0,1.43-1.195,2.625-2.648,2.625h-23.039
		c-1.43,0-2.648-1.195-2.648-2.625C1036.076,59.273,1037.295,58.078,1038.725,58.078z M1039.17,46.57
		c0-1.453,1.195-2.648,2.625-2.648h5.812V16.406h-5.812c-1.43,0-2.625-1.195-2.625-2.625c0-1.453,1.195-2.648,2.625-2.648h16.898
		c1.43,0,2.648,1.195,2.648,2.648c0,1.43-1.219,2.625-2.648,2.625h-5.812v27.516h5.812c1.43,0,2.648,1.195,2.648,2.648
		c0,1.43-1.219,2.625-2.648,2.625h-16.898C1040.365,49.195,1039.17,48,1039.17,46.57z"/>
</g>
</svg>
