<?xml version="1.0" encoding="utf-8"?>
<!-- Generator: Adobe Illustrator 26.0.3, SVG Export Plug-In . SVG Version: 6.00 Build 0)  -->
<svg version="1.1" id="Layer_1" xmlns="http://www.w3.org/2000/svg" xmlns:xlink="http://www.w3.org/1999/xlink" x="0px" y="0px"
	 viewBox="0 0 100.57 52.5" style="enable-background:new 0 0 100.57 52.5;" xml:space="preserve">
<style type="text/css">
	.st0{fill:#FFFFFF;}
</style>
<g>
	<path class="st0" d="M2.648,47.227h23.039c1.453,0,2.648,1.195,2.648,2.648c0,1.43-1.195,2.625-2.648,2.625H2.648
		C1.219,52.5,0,51.305,0,49.875C0,48.422,1.219,47.227,2.648,47.227z M11.578,36V5.555H4.289c-1.406,0-2.648-1.195-2.648-2.625
		c0-1.453,1.195-2.648,2.648-2.648h19.758c1.453,0,2.648,1.195,2.648,2.648c0,1.43-1.195,2.625-2.648,2.625h-7.195V36
		c0,1.43-1.195,2.625-2.625,2.625C12.82,38.625,11.578,37.43,11.578,36z M38.531,47.227H61.57c1.453,0,2.648,1.195,2.648,2.648
		c0,1.43-1.195,2.625-2.648,2.625H38.531c-1.43,0-2.648-1.195-2.648-2.625C35.883,48.422,37.102,47.227,38.531,47.227z
		 M38.977,2.625C38.977,1.148,40.125,0,41.602,0c1.5,0,2.648,1.148,2.648,2.625V27.75c0,3.562,2.25,5.859,5.812,5.859
		c3.492,0,5.789-2.297,5.789-5.859V2.625C55.852,1.148,57.023,0,58.5,0c1.5,0,2.648,1.148,2.648,2.625V27.75
		c0,6.352-4.805,11.133-11.086,11.133c-6.352,0-11.086-4.781-11.086-11.133V2.625z M74.414,47.227h23.508
		c1.453,0,2.648,1.195,2.648,2.648c0,1.43-1.195,2.625-2.648,2.625H74.414c-1.43,0-2.648-1.195-2.648-2.625
		C71.766,48.422,72.984,47.227,74.414,47.227z M76.781,2.625c0-1.43,1.195-2.625,2.625-2.625c1.453,0,2.648,1.195,2.648,2.625V33.07
		h12.609c1.453,0,2.648,1.195,2.648,2.648c0,1.43-1.195,2.625-2.648,2.625H79.406c-1.43,0-2.625-1.195-2.625-2.625V2.625z"/>
</g>
</svg>
