<?xml version="1.0" encoding="UTF-8"?>
<!DOCTYPE svg PUBLIC "-//W3C//DTD SVG 1.1//EN" "http://www.w3.org/Graphics/SVG/1.1/DTD/svg11.dtd">
<!-- Creator: CorelDRAW -->
<svg xmlns="http://www.w3.org/2000/svg" xml:space="preserve" width="25mm" height="30mm" style="shape-rendering:geometricPrecision; text-rendering:geometricPrecision; image-rendering:optimizeQuality; fill-rule:evenodd; clip-rule:evenodd"
viewBox="0 0 25 30"
 xmlns:xlink="http://www.w3.org/1999/xlink">
 <defs>
  <style type="text/css">
   <![CDATA[
    .fil0 {fill:#999999}
   ]]>
  </style>
 </defs>
 <g id="Vrstva_x0020_1">
  <metadata id="CorelCorpID_0Corel-Layer"/>
  <path class="fil0" d="M21.5348 10.1289l1.1152 1.3475 -1.1152 0.9229 0 14.498 -19.1587 -0.0816 -0.0262 -16.9369c-0.0009,-0.6406 0.0439,-1.205 0.5043,-1.6548 1.6275,-1.5899 2.9313,-2.8904 4.5586,-4.4801 0.3629,-0.3546 1.3035,-0.6417 1.8131,-0.6413l12.3089 0.0123 0 7.014zm-1.2341 3.2917l-9.0711 7.5071 -1.7079 -2.0639 10.779 -8.9205 0 -5.5965 -11.2733 0 -0.572 5.1875 -4.9424 0.1229 0 15.8481 16.7877 0 0 -12.0847zm-16.6176 -4.7438l3.9279 -0.0478 0.4582 -4.159 -4.3861 4.2068zm2.8931 14.4889l0.1207 -1.1765 0.121 -1.1768 1.2532 -0.6257 1.2533 -0.6258 0.6534 0.7897 0.6536 0.7897 -0.849 1.1139 -0.8491 1.1142 -1.1787 -0.1012 -1.1784 -0.1015z"/>
 </g>
</svg>
